<?xml version="1.0" encoding="utf-8"?>
<!-- Generator: Adobe Illustrator 15.1.0, SVG Export Plug-In . SVG Version: 6.00 Build 0)  -->
<!DOCTYPE svg PUBLIC "-//W3C//DTD SVG 1.1//EN" "http://www.w3.org/Graphics/SVG/1.1/DTD/svg11.dtd">
<svg version="1.1" id="Layer_1" xmlns="http://www.w3.org/2000/svg" xmlns:xlink="http://www.w3.org/1999/xlink" x="0px" y="0px"
	 width="512px" height="512px" viewBox="0 0 512 512" enable-background="new 0 0 512 512" xml:space="preserve">
<g>
	<path fill-rule="evenodd" clip-rule="evenodd" fill="none" stroke="#000000" stroke-width="12" stroke-miterlimit="10" d="
		M407.854,273.058c-6.309-20.064-27.096-30.654-51.341-23.016c-8.981-17.16-33.194-23.985-54.881-14.163
		c-2.216-3.467-5.03-4.422-7.465-9.178c-14.643-34.113-40.975-94.705-51.012-122.632c-10.051-27.968-42.215-29.138-47.8,1.773
		c-9.052,50.08,47.19,151.793,39.454,197.377c-21.636,46.43-45.027-59.413-81.152-68.038c-4.027-0.466-12.995,1.608-18.685,6.469
		c-21.794,18.822,4.521,48.161,13.232,88.629c11.364,33.989,16.62,39.709,53.033,80.054c9.93,9.068,29.031,24.063,36.918,32.112
		c43.042,29.813,40.027,34.62,35.148,51.912c50.756,0,101.503,0,152.259,0C446.614,444.294,492.226,283.236,407.854,273.058z"/>
	<path fill="none" stroke="#000000" stroke-width="12" stroke-miterlimit="10" d="M147.373,232.773l-9.879-29.604
		c-2.43-7.305-10.315-11.248-17.614-8.799l-53.264,17.767c-7.3,2.431-11.245,10.32-8.808,17.621c1.215,3.655,3.799,6.455,6.99,8.059
		c3.187,1.585,6.985,1.969,10.631,0.754l19.722-6.588l-31.934,63.904c-3.433,6.876-0.642,15.245,6.241,18.689
		c6.887,3.436,15.247,0.64,18.683-6.235l33.019-66.084l3.538,10.599"/>
	<path fill="none" stroke="#000000" stroke-width="12" stroke-miterlimit="10" d="M198.458,98.884l-8.833,2.956L220.3,40.453
		c3.296-6.606,0.617-14.642-5.996-17.95c-6.615-3.303-14.647-0.621-17.945,5.985l-31.717,63.479l-6.323-18.941
		c-2.346-7.013-9.923-10.791-16.936-8.456c-7.006,2.33-10.791,9.904-8.456,16.917l16.024,48.029
		c2.337,7.013,9.909,10.795,16.924,8.452l28.464-9.502"/>
</g>
</svg>
