<?xml version="1.0" encoding="UTF-8" standalone="no"?>
<svg
   xmlns:dc="http://purl.org/dc/elements/1.1/"
   xmlns:cc="http://creativecommons.org/ns#"
   xmlns:rdf="http://www.w3.org/1999/02/22-rdf-syntax-ns#"
   xmlns:svg="http://www.w3.org/2000/svg"
   xmlns="http://www.w3.org/2000/svg"
   xmlns:sodipodi="http://sodipodi.sourceforge.net/DTD/sodipodi-0.dtd"
   xmlns:inkscape="http://www.inkscape.org/namespaces/inkscape"
   width="64"
   height="64"
   version="1"
   id="svg2"
   inkscape:version="0.48.5 r10040"
   sodipodi:docname="eba_dosya.svg">
  <metadata
     id="metadata24">
    <rdf:RDF>
      <cc:Work
         rdf:about="">
        <dc:format>image/svg+xml</dc:format>
        <dc:type
           rdf:resource="http://purl.org/dc/dcmitype/StillImage" />
      </cc:Work>
    </rdf:RDF>
  </metadata>
  <defs
     id="defs22">
    <filter
       style="color-interpolation-filters:sRGB;"
       inkscape:label="Drop Shadow"
       id="filter3820">
      <feFlood
         flood-opacity="0.3"
         flood-color="rgb(0,0,0)"
         result="flood"
         id="feFlood3822" />
      <feComposite
         in="flood"
         in2="SourceGraphic"
         operator="in"
         result="composite1"
         id="feComposite3824" />
      <feOffset
         dx="-0.9"
         dy="0.9"
         result="offset"
         id="feOffset3826" />
      <feComposite
         in="SourceGraphic"
         in2="offset"
         operator="over"
         result="composite2"
         id="feComposite3828" />
    </filter>
  </defs>
  <sodipodi:namedview
     pagecolor="#ffffff"
     bordercolor="#666666"
     borderopacity="1"
     objecttolerance="10"
     gridtolerance="10"
     guidetolerance="10"
     inkscape:pageopacity="0"
     inkscape:pageshadow="2"
     inkscape:window-width="1652"
     inkscape:window-height="1042"
     id="namedview20"
     showgrid="false"
     inkscape:zoom="10.429825"
     inkscape:cx="49.223071"
     inkscape:cy="28.074444"
     inkscape:window-x="267"
     inkscape:window-y="-1"
     inkscape:window-maximized="1"
     inkscape:current-layer="svg2" />
  <rect
     style="opacity:0.2"
     width="56"
     height="56"
     x="-61"
     y="-60"
     rx="2.8"
     ry="2.8"
     transform="matrix(0,-1,-1,0,0,0)"
     id="rect4" />
  <rect
     width="56"
     height="56"
     x="-60"
     y="-60"
     rx="2.8"
     ry="2.8"
     transform="matrix(0,-1,-1,0,0,0)"
     style="fill:#3c3c3c;fill-opacity:1"
     id="rect6" />
  <path
     style="fill:#ffffff;opacity:0.1"
     d="M 6.8007812 4 C 5.2495813 4 4 5.2495813 4 6.8007812 L 4 7.8007812 C 4 6.2495813 5.2495813 5 6.8007812 5 L 57.199219 5 C 58.750419 5 60 6.2495813 60 7.8007812 L 60 6.8007812 C 60 5.2495813 58.750419 4 57.199219 4 L 6.8007812 4 z"
     id="path14" />
  <path
     style="fill:#ff6c00;fill-opacity:1;filter:url(#filter3820)"
     inkscape:connector-curvature="0"
     id="path7"
     d="m 24.425511,39.903952 c 0.08693,0.850754 0.335176,1.641206 0.758794,2.365327 0.533668,0.911557 1.28995,1.61407 2.268844,2.105025 0.978392,0.491457 2.136683,0.737688 3.473869,0.737688 2.005025,0 3.860302,-0.513065 5.566834,-1.537688 0.09699,-0.05779 0.182412,-0.131156 0.277387,-0.192463 -0.919598,-1.449246 -1.141708,-3.229145 -1.192965,-3.948743 -0.608542,1.373367 -1.31809,2.444221 -2.141206,3.172864 -0.720603,0.640201 -1.476381,0.959296 -2.266834,0.959296 -0.720603,0 -1.29598,-0.257789 -1.726633,-0.773869 -0.429648,-0.51608 -0.644723,-1.302512 -0.644723,-2.358291 0,-1.816081 0.363316,-3.67588 1.089447,-5.5799 0.177387,-0.464321 0.362814,-0.896482 0.556281,-1.30201 -1.213568,1.186433 -3.137688,3.166332 -6.019095,6.352764 m 7.385929,-12.241206 2.591457,-9.628643 -7.373366,0.28392 -0.48191,1.669849 h 0.731156 c 0.57588,0 0.98392,0.09196 1.224623,0.275377 0.239699,0.18392 0.359799,0.441709 0.359799,0.772865 0,0.213567 -0.02965,0.432663 -0.08894,0.657788 l -3.068346,11.467839 c 1.851256,-2.077889 3.962814,-4.147739 6.105527,-5.498995 m -19.322613,8.885427 c 0.450251,-2.670854 1.23216,-4.768844 2.345226,-6.293467 0.757788,-1.051759 1.574874,-1.577387 2.451758,-1.577387 0.438191,0 0.802513,0.174372 1.092965,0.522613 0.290452,0.348744 0.435678,0.830151 0.435678,1.444724 0,1.488945 -0.63417,2.830653 -1.901507,4.02412 -0.923618,0.862312 -2.398492,1.488945 -4.42412,1.879397 m 39.392966,5.773869 c -0.0774,-0.09497 -0.11558,-0.230653 -0.11558,-0.409045 0,-0.237186 0.11809,-0.78794 0.35528,-1.654774 l 3.53115,-12.700502 -4.55427,0.338191 -0.96181,2.575879 c -0.3201,-1.077889 -0.80502,-1.865829 -1.45527,-2.363316 -0.65126,-0.496985 -1.50804,-0.745729 -2.57186,-0.745729 -1.40151,0 -2.77287,0.427136 -4.11608,1.235679 0.66231,0.980904 1.12964,2.33015 1.1613,4.150753 0.0352,-0.06482 0.0593,-0.134673 0.0955,-0.198492 1.15176,-2.025126 2.44925,-3.038191 3.89095,-3.038191 0.62614,0 1.11408,0.234171 1.46181,0.701507 0.34875,0.467337 0.52362,1.275377 0.52362,2.423116 -0.0126,1.929648 -0.33769,3.750754 -0.97387,5.463316 -0.63668,1.712061 -1.36784,2.933166 -2.19246,3.661809 -0.82513,0.729146 -1.59749,1.093468 -2.31608,1.093468 -0.0528,0 -0.0995,-0.01156 -0.15075,-0.01457 l -5.1e-4,0.01055 c 0,0 -0.50703,0.05075 -1.01206,-0.351759 -0.15176,-0.109548 -0.29296,-0.236684 -0.41055,-0.399498 -0.13316,-0.183919 -0.23367,-0.430653 -0.31809,-0.709547 -0.005,-0.01206 -0.008,-0.02714 -0.0116,-0.0392 -0.0317,-0.110553 -0.0658,-0.216081 -0.0909,-0.340201 -0.23819,-0.986935 -0.26282,-2.490453 0.21055,-4.817086 0.68995,-3.388944 0.18442,-5.584422 -0.77337,-6.978392 -0.008,0.0065 -0.0161,0.01256 -0.0246,0.0191 -0.12261,-0.176382 -0.23266,-0.362814 -0.37588,-0.523116 -0.22864,-0.254271 -0.47387,-0.476884 -0.73316,-0.671859 -0.0116,-0.009 -0.0246,-0.01759 -0.0362,-0.02663 -0.25125,-0.184422 -0.51507,-0.341709 -0.79397,-0.472362 -0.0256,-0.01156 -0.0513,-0.02161 -0.0764,-0.03216 -0.5809,-0.261306 -1.21809,-0.412562 -1.91356,-0.451758 0.003,-0.002 0.007,-0.005 0.009,-0.0075 -0.0276,-0.003 -0.0568,0.003 -0.0844,5.02e-4 -0.095,-0.0045 -0.180406,-0.02563 -0.277391,-0.02563 -0.08894,0 -0.167839,0.02312 -0.254774,0.02663 -0.341709,0.0045 -0.68593,0.0397 -1.033668,0.108041 -0.08744,0.01709 -0.17588,0.03266 -0.261809,0.05327 -1.224623,0.29196 -2.474372,0.929648 -3.70804,1.800502 -1.250252,0.960804 -3.276885,2.763317 -6.338191,6.102513 l -0.007,0.02663 c -1.656282,1.942211 -3.043216,3.762312 -3.950755,4.827136 -0.003,0.004 -0.006,0.0065 -0.0095,0.01055 l -0.003,-0.0025 c -1.200503,1.224623 -2.216583,2.042713 -3.048241,2.460301 -0.01809,0.009 -0.03417,0.01407 -0.05226,0.02312 -0.823618,0.403015 -1.661306,0.609045 -2.513567,0.609045 -1.030654,0 -1.853769,-0.338191 -2.46985,-1.013568 -0.61608,-0.675377 -0.923618,-1.640201 -0.923618,-2.89598 0,-0.295979 0.02312,-0.669346 0.07085,-1.1201 3.091959,-0.544221 5.395979,-1.163317 6.911557,-1.856281 1.516583,-0.692463 2.61206,-1.510051 3.287439,-2.451759 0.674874,-0.942211 1.012563,-1.880402 1.012563,-2.816081 0,-1.125628 -0.420603,-2.055276 -1.261809,-2.790452 -0.841208,-0.733668 -2.025127,-1.101005 -3.553268,-1.101005 -2.084925,0 -4.030653,0.503518 -5.836683,1.51005 -1.806533,1.007538 -3.2311556,2.384422 -4.2728646,4.131659 -1.042713,1.747738 -1.5638188,3.573869 -1.5638188,5.480904 0,2.143719 0.6246228,3.841206 1.8743718,5.090955 1.2497476,1.249246 2.9643206,1.873869 5.1437186,1.873869 0.439698,0 0.867839,-0.03317 1.290452,-0.08593 -0.02462,0.01256 -0.03769,0.03015 -0.06432,0.04171 0.159799,-0.03467 0.294975,-0.06935 0.445226,-0.10402 0.918593,-0.149246 1.801005,-0.409548 2.637689,-0.811558 0.09246,-0.04372 0.185929,-0.107035 0.278392,-0.155779 0.216583,-0.109045 0.433668,-0.230653 0.646231,-0.362311 0.05176,-0.03216 0.103015,-0.06533 0.154774,-0.09849 0.244723,-0.158794 0.49598,-0.339698 0.748743,-0.538191 0.106031,-0.08141 0.212061,-0.161809 0.319096,-0.249246 0.07186,-0.0598 0.148744,-0.130653 0.222613,-0.194472 0.467839,-0.39799 0.938191,-0.845729 1.412062,-1.347739 0.09146,-0.09397 0.171859,-0.168844 0.266834,-0.267337 0.637688,-0.753768 1.227135,-1.43216 1.798492,-2.082914 0.05528,-0.06633 0.09598,-0.125628 0.155779,-0.194473 2.125628,-2.458291 5.523618,-6.537185 8.339196,-8.181406 0.04121,-0.03166 0.08191,-0.06533 0.123115,-0.09699 0.416583,-0.287438 0.694473,-0.441206 0.853267,-0.515578 0.327638,-0.136181 0.654271,-0.213066 0.979397,-0.213066 0.09598,0 0.183417,0.01709 0.274874,0.02764 l -10e-4,-0.01709 c 0,0 0.728141,-0.06332 1.314573,0.699498 0.03015,0.03518 0.06533,0.06131 0.09397,0.09849 0.348241,0.455276 0.540703,1.154271 0.594975,2.06985 0.0764,0.872361 0.0352,1.996984 -0.217086,3.483416 -0.525126,3.330151 0.04724,5.431659 0.952766,6.764322 0.0105,-0.0085 0.0236,-0.01457 0.0332,-0.02362 0.1402,0.20603 0.27086,0.420603 0.43719,0.605527 0.23518,0.260804 0.48945,0.48191 0.75327,0.684422 0.0568,0.04121 0.11306,0.08945 0.17035,0.127639 0.20754,0.146733 0.42864,0.265326 0.65326,0.376884 0.15126,0.07337 0.2995,0.139698 0.44121,0.19397 0.21307,0.08191 0.43116,0.152764 0.6593,0.205025 0.10854,0.02714 0.20402,0.04874 0.29045,0.06432 0.33367,0.05779 0.67638,0.09749 1.03819,0.09749 0.94523,0 1.8402,-0.228141 2.68492,-0.68392 0.84473,-0.456281 1.71608,-1.252261 2.61407,-2.389949 0.0834,1.019095 0.35629,1.785929 0.8196,2.301005 0.46332,0.514573 1.11709,0.772864 1.9598,0.772864 2.4593,0 4.72764,-2.0201 6.80704,-6.059296 l -1.3402,-0.728141 c -1.40503,2.760301 -2.54774,4.139698 -3.42915,4.139698 -0.15578,0 -0.27136,-0.04724 -0.34824,-0.142211"
     transform="matrix(0.94241822,0,0,0.94241822,1.8438614,2.0990262)" />
</svg>
