<?xml version="1.0" encoding="utf-8"?>
<!-- Generator: Adobe Illustrator 16.0.4, SVG Export Plug-In . SVG Version: 6.00 Build 0)  -->
<!DOCTYPE svg PUBLIC "-//W3C//DTD SVG 1.1 Tiny//EN" "http://www.w3.org/Graphics/SVG/1.1/DTD/svg11-tiny.dtd">
<svg version="1.1" baseProfile="tiny" id="katman_1"
	 xmlns="http://www.w3.org/2000/svg" xmlns:xlink="http://www.w3.org/1999/xlink" x="0px" y="0px" width="453.54px"
	 height="255.12px" viewBox="0 0 453.54 255.12" xml:space="preserve">
<path d="M453.54,226.263c0,15.938-12.92,28.857-28.857,28.857H28.857C12.92,255.12,0,242.2,0,226.263V28.857
	C0,12.92,12.92,0,28.857,0h395.825c15.938,0,28.857,12.92,28.857,28.857V226.263z"/>
<path fill="#FFFFFF" d="M280.883,136.395c4.677,0,6.361-3.171,3.743-7.046l-53.095-78.576c-2.619-3.875-6.904-3.875-9.522,0
	l-53.095,78.576c-2.619,3.875-0.935,7.046,3.743,7.046h23.228c4.677,0,8.504,3.827,8.504,8.504v57.991
	c0,4.677,3.827,8.504,8.504,8.504h27.756c4.677,0,8.504-3.827,8.504-8.504v-57.991c0-4.677,3.827-8.504,8.504-8.504H280.883z"/>
</svg>
